<?xml version="1.0" standalone="no"?>
<!DOCTYPE svg PUBLIC "-//W3C//DTD SVG 20010904//EN"
 "http://www.w3.org/TR/2001/REC-SVG-20010904/DTD/svg10.dtd">
<svg version="1.0" xmlns="http://www.w3.org/2000/svg"
 width="383.000000pt" height="383.000000pt" viewBox="0 0 383.000000 383.000000"
 preserveAspectRatio="xMidYMid meet">
<metadata>
Created by potrace 1.14, written by Peter Selinger 2001-2017
</metadata>
<g transform="translate(0.000000,383.000000) scale(0.100000,-0.100000)"
fill="#000000" stroke="none">
<path d="M2525 3702 c-24 -4 -98 -29 -140 -47 -16 -7 -104 -43 -195 -80 -91
-37 -169 -71 -174 -76 -9 -8 12 -67 65 -185 10 -23 21 -54 25 -68 8 -33 7 -32
112 -62 48 -13 110 -31 137 -39 28 -8 70 -19 95 -26 25 -6 38 -14 30 -16 -8
-3 -30 -11 -48 -20 -30 -13 -36 -13 -60 3 -15 9 -37 26 -49 37 -26 23 -26 23
-23 -61 1 -40 -1 -43 -34 -57 -43 -18 -49 -27 -36 -59 6 -16 17 -26 30 -26 21
0 26 -2 105 -42 89 -45 149 -146 147 -248 -1 -39 -8 -85 -12 -85 -1 0 -3 -8
-5 -18 -2 -10 -15 -36 -29 -57 l-26 -39 44 -108 c25 -59 52 -126 62 -148 10
-22 19 -44 20 -50 1 -5 12 -32 25 -60 12 -27 23 -52 23 -55 1 -3 10 -27 20
-55 20 -55 39 -81 59 -83 14 -1 52 -10 52 -12 0 -1 8 -3 18 -5 10 -2 35 -16
55 -31 116 -88 153 -225 98 -358 -51 -122 -189 -189 -334 -163 -18 3 -40 11
-48 17 -7 7 -14 9 -14 6 0 -10 -26 12 -80 66 -52 52 -83 129 -82 203 1 46 38
155 53 155 5 0 9 7 9 15 0 8 5 15 10 15 6 0 10 6 10 14 0 12 -46 131 -85 221
-8 17 -23 55 -35 85 -12 30 -27 66 -33 80 -6 14 -11 27 -12 30 -11 36 -39 90
-47 90 -5 0 -6 -4 -3 -10 3 -5 2 -10 -4 -10 -5 0 -13 -10 -16 -22 -4 -13 -20
-54 -37 -93 -37 -89 -46 -110 -57 -137 -5 -13 -21 -49 -35 -80 -14 -32 -22
-58 -18 -58 4 0 1 -4 -5 -8 -7 -4 -14 -17 -16 -27 -2 -11 -13 -40 -25 -65 -11
-25 -22 -52 -24 -60 -2 -8 -6 -17 -9 -20 -8 -7 -62 -143 -62 -157 0 -7 -3 -13
-7 -13 -4 0 -17 -27 -29 -60 -25 -67 -24 -68 49 -120 19 -14 42 -32 51 -40 21
-20 55 -48 105 -86 37 -29 52 -41 104 -84 9 -8 32 -26 50 -40 18 -14 38 -30
44 -36 6 -5 57 -47 113 -92 57 -44 108 -86 115 -92 7 -6 26 -21 43 -35 16 -13
27 -27 24 -29 -3 -3 -14 2 -25 12 -11 9 -46 35 -79 57 -33 22 -62 42 -65 45
-3 3 -49 34 -102 70 -54 36 -98 68 -98 72 0 5 -4 8 -10 8 -8 0 -136 87 -284
194 -27 20 -52 34 -54 31 -3 -2 3 -20 12 -40 37 -77 26 -207 -23 -275 -28 -38
-47 -60 -54 -60 -3 0 -33 48 -68 107 -35 60 -69 117 -76 128 -7 11 -15 27 -19
35 -4 8 -22 38 -39 65 -67 105 -115 185 -115 190 0 3 -12 24 -26 47 l-26 41
-26 -26 -26 -26 37 -53 c20 -29 68 -98 106 -153 39 -55 94 -134 123 -175 28
-41 55 -76 60 -78 4 -2 8 -8 8 -13 0 -11 42 -72 53 -77 4 -2 7 -12 7 -21 0
-18 -49 -46 -100 -57 -142 -31 -295 58 -338 196 -21 68 -20 143 1 177 6 9 2
13 -10 14 -23 1 -237 -3 -373 -6 -58 -2 -148 -4 -201 -5 l-97 -2 8 -27 c8 -27
79 -200 107 -260 8 -18 16 -39 17 -45 2 -6 9 -24 16 -41 27 -63 39 -92 60
-145 12 -30 44 -109 72 -175 27 -66 54 -129 58 -140 4 -11 17 -40 28 -65 11
-25 23 -56 27 -69 4 -13 14 -32 24 -43 9 -11 23 -28 32 -39 9 -10 40 -30 70
-43 82 -38 147 -35 245 10 29 13 56 24 59 24 4 0 21 7 38 15 18 8 88 37 157
65 154 64 163 67 175 70 6 1 35 13 65 27 30 13 91 38 135 56 44 17 83 36 87
42 4 5 8 7 8 3 0 -4 17 0 38 9 52 22 76 30 85 31 4 1 20 8 35 17 27 15 81 38
94 39 3 1 10 4 14 8 4 5 16 8 26 8 10 0 18 5 18 10 0 6 3 9 8 8 4 0 16 2 27 7
32 13 188 76 215 88 14 5 30 11 35 12 6 2 36 14 67 29 31 14 60 26 63 26 3 0
27 10 53 21 25 12 51 22 57 24 5 1 32 12 58 23 27 12 51 22 54 22 3 0 19 6 36
14 44 20 230 97 242 100 6 2 26 10 45 18 19 9 69 30 111 47 91 38 133 79 161
159 31 88 24 123 -62 327 -4 11 -15 36 -23 55 -8 19 -38 94 -67 165 -28 72
-58 144 -66 162 -33 73 -74 179 -74 191 0 6 -4 12 -10 12 -5 0 -10 6 -10 14 0
7 -9 35 -21 62 -23 56 -34 83 -50 122 -6 15 -18 39 -26 54 -7 15 -13 29 -13
30 2 4 -10 39 -25 73 -8 17 -23 55 -35 85 -12 30 -27 69 -35 85 -74 170 -128
318 -119 328 3 2 -17 10 -43 17 -26 6 -55 14 -63 17 -8 2 -16 4 -17 4 -2 0
-17 5 -35 10 -18 6 -67 19 -108 30 -41 11 -82 22 -90 26 -8 3 -22 7 -30 8 -15
2 -120 31 -150 41 -9 3 19 22 70 46 141 67 251 118 256 118 3 0 16 8 28 17
l23 18 -25 60 c-13 33 -32 78 -42 100 -9 22 -23 57 -31 78 -7 20 -17 37 -21
37 -4 0 -8 5 -8 10 0 18 -43 57 -89 81 -45 23 -110 37 -146 31z m85 -2892 c0
-5 -2 -10 -4 -10 -3 0 -8 5 -11 10 -3 6 -1 10 4 10 6 0 11 -4 11 -10z m31 -27
c13 -16 12 -17 -3 -4 -17 13 -22 21 -14 21 2 0 10 -8 17 -17z"/>
<path d="M1565 3432 c-1 -2 -81 -5 -176 -8 -96 -2 -199 -6 -229 -9 l-55 -4
-97 -103 c-53 -57 -94 -106 -91 -110 2 -5 -3 -8 -11 -8 -9 0 -16 -4 -16 -8 0
-4 -19 -28 -42 -53 -24 -25 -68 -73 -98 -106 -58 -63 -61 -65 -230 -133 -58
-23 -118 -48 -135 -55 -16 -7 -55 -23 -85 -36 -30 -13 -58 -28 -62 -33 -4 -6
-8 -7 -8 -3 0 23 -70 -79 -85 -123 -23 -69 -17 -120 25 -225 50 -123 49 -116
56 -346 3 -112 7 -215 8 -229 1 -22 13 -28 126 -68 69 -24 132 -45 140 -47 12
-3 237 -79 330 -111 8 -3 15 -4 15 -3 0 1 9 -3 20 -8 17 -9 25 -7 43 12 52 54
175 86 258 67 l42 -9 83 90 c46 49 110 117 141 151 56 59 59 65 109 221 28 88
57 180 65 205 8 25 14 48 14 52 1 4 8 27 16 50 9 24 17 50 19 58 12 45 66 214
70 218 3 3 5 -10 6 -29 0 -19 2 -56 4 -84 7 -116 17 -355 19 -417 0 -38 3 -68
6 -68 3 0 6 -35 7 -78 3 -148 6 -183 14 -175 4 4 27 55 50 113 23 58 45 107
48 110 3 3 7 11 9 19 2 8 10 30 19 50 9 20 17 41 19 46 1 6 15 42 32 80 39 93
45 109 46 117 1 3 4 10 8 14 4 4 -4 20 -18 37 -78 93 -81 248 -6 346 14 19 25
46 24 58 -1 14 3 23 11 22 47 -6 46 -9 41 159 -3 86 -7 177 -9 202 -2 25 -4
55 -4 68 -1 12 -4 21 -8 20 -5 -2 -33 15 -63 37 -107 79 -94 75 -260 72 -83
-1 -153 -3 -155 -5z m385 -579 c-19 -9 -37 -17 -40 -18 -3 0 -27 -11 -54 -23
-27 -12 -52 -22 -57 -22 -5 0 -9 -4 -9 -10 0 -5 -9 -10 -19 -10 -11 0 -21 -6
-24 -12 -2 -7 -7 -11 -10 -8 -3 3 1 22 8 43 14 41 5 48 -30 24 -11 -8 -54 -32
-95 -54 -146 -79 -516 -281 -597 -326 -46 -25 -83 -43 -83 -41 0 3 -7 -2 -16
-10 -8 -9 -19 -16 -22 -16 -4 0 -49 39 -101 88 l-93 87 13 43 c8 23 17 42 21
42 4 0 5 6 2 14 -3 7 2 16 11 20 9 3 13 10 10 16 -3 5 -3 16 2 23 4 6 8 18 10
26 4 29 30 40 108 46 44 4 98 8 120 11 80 8 211 18 243 18 17 1 32 3 32 6 0 3
17 5 38 6 35 0 156 10 252 19 97 10 162 16 237 21 43 3 79 6 80 7 1 1 23 3 50
4 l48 2 -35 -16z"/>
</g>
</svg>
